<svg id="Layer_1" data-name="Layer 1" xmlns="http://www.w3.org/2000/svg" viewBox="0 0 52 52"><defs><style>.cls-1,.cls-2{fill:none;stroke-linecap:round;stroke-linejoin:round;stroke-width:2px}.cls-1{stroke:#0079c0}.cls-2{stroke:#4d4d4f}</style></defs><path class="cls-1" d="M28.72 47.76h-.05"/><rect class="cls-2" x="11.09" y="8.8" width="29.82" height="42.2" rx="6.94"/><rect class="cls-2" x="13.77" y="1" width="24.46" height="7.35" rx="1.83"/><path class="cls-2" d="M11.09 17.08h29.82M11.09 42.23h29.82"/><path d="M23.34 25.7h10.79v-4.93H23.41A5.73 5.73 0 0 0 19.29 22a5.34 5.34 0 0 0-1.49 4.29v7.11a5.46 5.46 0 0 0 .83 3.32c1.11 1.67 3.13 2 5.37 2h10.2V33.8H23.34z" fill="#0079bf"/><path class="cls-1" d="M37 45.37c-.82 1.5-2 2.39-4.84 2.39"/></svg>