<svg id="Layer_1" data-name="Layer 1" xmlns="http://www.w3.org/2000/svg" viewBox="0 0 52 52"><defs><style>.cls-1{fill:#4d4d4f;}.cls-2{fill:#0079c0;}</style></defs><path class="cls-1" d="M17.46,18.34A5.75,5.75,0,0,1,13.82,17h0a8.64,8.64,0,0,1-3.12-5.81c0-.27-.06-.55-.08-.83l0-.34a7.9,7.9,0,0,1,1.59-5A5.4,5.4,0,0,1,19.6,3.72a8.09,8.09,0,0,1,3.48,5,8.6,8.6,0,0,1-.67,6.57,5.57,5.57,0,0,1-4.27,3A5.31,5.31,0,0,1,17.46,18.34Zm-2.38-2.92a3.54,3.54,0,0,0,5.58-1.11,6.6,6.6,0,0,0,.49-5.09,6.06,6.06,0,0,0-2.63-3.81,3.38,3.38,0,0,0-4.76.81,5.82,5.82,0,0,0-1.17,3.69l0,.27c0,.24,0,.48.07.72a6.68,6.68,0,0,0,2.4,4.52Z"/><path class="cls-1" d="M9.17,28.49A5.28,5.28,0,0,1,7,28,7.78,7.78,0,0,1,2.79,22.9a7.39,7.39,0,0,1,.14-5.07,5.18,5.18,0,0,1,3.09-3,5.14,5.14,0,0,1,4.23.49,8.18,8.18,0,0,1,3.88,5.58,7.76,7.76,0,0,1,.13.82c0,.19,0,.37.05.54v.19a.49.49,0,0,1,0,.12,6.63,6.63,0,0,1-1.52,4.27h0A4.81,4.81,0,0,1,9.17,28.49ZM7.56,16.57a2.74,2.74,0,0,0-.9.15A3.17,3.17,0,0,0,4.78,18.6a5.32,5.32,0,0,0-.08,3.72,5.85,5.85,0,0,0,3.1,3.85,2.91,2.91,0,0,0,3.52-.66,4.54,4.54,0,0,0,1-3V22.4c0-.14,0-.3,0-.45a6.17,6.17,0,0,0-.1-.62,6.12,6.12,0,0,0-2.93-4.28A3.37,3.37,0,0,0,7.56,16.57Zm4.5,9.6h0Z"/><path class="cls-1" d="M30.81,18.34a5.31,5.31,0,0,1-.68-.05,5.57,5.57,0,0,1-4.27-3,8.6,8.6,0,0,1-.67-6.57,8.05,8.05,0,0,1,3.48-5A5.4,5.4,0,0,1,36.09,5a7.81,7.81,0,0,1,1.59,4.91l0,.44c0,.28,0,.56-.08.83A8.65,8.65,0,0,1,34.44,17h0A5.73,5.73,0,0,1,30.81,18.34Zm1-13.57a3.8,3.8,0,0,0-2,.64,6.09,6.09,0,0,0-2.62,3.81,6.55,6.55,0,0,0,.49,5.09,3.53,3.53,0,0,0,5.57,1.11h0a6.65,6.65,0,0,0,2.41-4.52q0-.36.06-.72l0-.37a5.73,5.73,0,0,0-1.17-3.59A3.45,3.45,0,0,0,31.77,4.77Zm2,11.43h0Z"/><path class="cls-1" d="M39.09,28.49a4.82,4.82,0,0,1-3.64-1.66h0a6.61,6.61,0,0,1-1.51-4.27v-.12l0-.19c0-.17,0-.35,0-.54a7.76,7.76,0,0,1,.13-.82A8.15,8.15,0,0,1,38,15.31a5,5,0,0,1,7.31,2.52,7.33,7.33,0,0,1,.15,5.07A7.78,7.78,0,0,1,41.32,28,5.29,5.29,0,0,1,39.09,28.49Zm-2.14-3a2.91,2.91,0,0,0,3.52.66,5.85,5.85,0,0,0,3.1-3.85,5.32,5.32,0,0,0-.08-3.72,3.2,3.2,0,0,0-1.88-1.88,3.13,3.13,0,0,0-2.59.33,6.12,6.12,0,0,0-2.93,4.28A6.17,6.17,0,0,0,36,22c0,.15,0,.31,0,.45v.14A4.54,4.54,0,0,0,37,25.51Z"/><path class="cls-1" d="M27.67,39a27.24,27.24,0,0,0-3.28-.45h-.51a32,32,0,0,0-3.72.53l-.95.18c-.55.1-1.1.21-1.68.29a9.11,9.11,0,0,1-3,.15A2.94,2.94,0,0,1,12.9,39a4.35,4.35,0,0,1-1.41-3.23,4.87,4.87,0,0,1,.12-1.2,6.6,6.6,0,0,1,2-3.53A15.52,15.52,0,0,1,15,29.73a28.1,28.1,0,0,0,2.56-3.18c.41-.58.76-1.19,1.1-1.78s.59-1,.91-1.49a4.27,4.27,0,0,1,3.59-2.11h.1c.31,0,1.46,0,1.8,0a4.18,4.18,0,0,1,3.65,2.11c.33.46.61,1,.92,1.49s.69,1.2,1.1,1.78a28,28,0,0,0,2.63,3.25l.31.28A3.46,3.46,0,0,1,36,29.56a16.09,16.09,0,0,0-1.27-1.21,27.08,27.08,0,0,1-2.38-3,17.89,17.89,0,0,1-1-1.62c-.31-.54-.63-1.09-1-1.63a6.16,6.16,0,0,0-5.32-3H23.27a6.21,6.21,0,0,0-5.35,3c-.37.54-.69,1.09-1,1.63a17.89,17.89,0,0,1-1,1.62,27.32,27.32,0,0,1-2.31,2.89,18.21,18.21,0,0,0-1.39,1.33A8.58,8.58,0,0,0,9.64,34.2a6.21,6.21,0,0,0-.15,1.58,6.36,6.36,0,0,0,2,4.63,4.85,4.85,0,0,0,2.76,1.24,7.59,7.59,0,0,0,1.25.09,13.62,13.62,0,0,0,2.33-.23c.58-.09,1.16-.2,1.73-.31l.94-.17a25.57,25.57,0,0,1,3.54-.5h.21a26.28,26.28,0,0,1,3.48.5l.31,0c0-.14-.13-.28-.18-.44A4.83,4.83,0,0,1,27.67,39Z"/><path class="cls-2" d="M15.39,38.62a3,3,0,0,1-.72-.07,2.6,2.6,0,0,1-1.51-1,2.7,2.7,0,0,1-.54-1.8,3.61,3.61,0,0,1,.07-.88.58.58,0,0,1,.59-.49c.27,0,.47.22.43.49l0,.14a2.39,2.39,0,0,0-.07.65A1.83,1.83,0,0,0,14,37a1.58,1.58,0,0,0,1,.63,7.59,7.59,0,0,0,2.2-.15l.16.48.06.5A13.55,13.55,0,0,1,15.39,38.62Z"/><path class="cls-2" d="M28.2,26.08a.5.5,0,0,1-.43-.25h0c-.28-.48-.54-.94-.82-1.34-.83-1.21-1.54-1.2-1.85-1.19H23.86a.5.5,0,0,1,0-1H25a3.1,3.1,0,0,1,2.78,1.63c.29.42.56.89.85,1.4a.51.51,0,0,1-.18.69A.59.59,0,0,1,28.2,26.08Z"/><path class="cls-1" d="M34.52,37.06a2.31,2.31,0,0,0,1.76.55A2.26,2.26,0,0,0,38,36.36a3.78,3.78,0,0,0,.29-2.89,3.57,3.57,0,0,0-1.52-2.18,2.17,2.17,0,0,0-3,.52,3.4,3.4,0,0,0-.69,2.13c0,.19,0,.37,0,.56A3.84,3.84,0,0,0,34.52,37.06Z"/><path class="cls-1" d="M33.34,42A2.73,2.73,0,0,0,34,40.19c0-.1,0-.22,0-.34s0-.24,0-.35a3.59,3.59,0,0,0-1.69-2.45,2,2,0,0,0-2.92,1,3.15,3.15,0,0,0-.06,2.18A3.36,3.36,0,0,0,31,42.45,1.93,1.93,0,0,0,33.34,42Z"/><path class="cls-1" d="M44.12,37.06a2.33,2.33,0,0,1-1.77.55,2.26,2.26,0,0,1-1.74-1.25,3.78,3.78,0,0,1-.29-2.89,3.59,3.59,0,0,1,1.51-2.18,2.18,2.18,0,0,1,3,.52,3.4,3.4,0,0,1,.69,2.13c0,.19,0,.37,0,.56A3.84,3.84,0,0,1,44.12,37.06Z"/><path class="cls-1" d="M45.3,42a2.79,2.79,0,0,1-.63-1.81c0-.1,0-.22,0-.34s0-.24.06-.35a3.53,3.53,0,0,1,1.69-2.45,2,2,0,0,1,2.92,1,3.2,3.2,0,0,1,.06,2.18,3.36,3.36,0,0,1-1.8,2.21A1.93,1.93,0,0,1,45.3,42Z"/><path class="cls-1" d="M46,46.09a0,0,0,0,0,0,0,3.75,3.75,0,0,0-1.13-2,8,8,0,0,0-.67-.63A13.76,13.76,0,0,1,43,41.91c-.37-.52-.64-1.1-1-1.62A2.58,2.58,0,0,0,39.76,39h-.88a2.57,2.57,0,0,0-2.23,1.26c-.36.52-.63,1.1-1,1.62a13.76,13.76,0,0,1-1.22,1.52,8,8,0,0,0-.67.63,3.77,3.77,0,0,0-1.14,2v0a2.5,2.5,0,0,0-.06.67,2.63,2.63,0,0,0,.85,2,1.93,1.93,0,0,0,1.09.48,4.93,4.93,0,0,0,1.63-.08c.39,0,.77-.13,1.16-.2a15.77,15.77,0,0,1,1.93-.29h.2a16.06,16.06,0,0,1,1.93.29c.38.07.77.15,1.15.2a5,5,0,0,0,1.63.08,1.93,1.93,0,0,0,1.1-.48,2.66,2.66,0,0,0,.85-2A2.5,2.5,0,0,0,46,46.09Z"/></svg>