<svg xmlns="http://www.w3.org/2000/svg" viewBox="0 0 16 16"><path d="M3.3 3.8v.3c.1.8.5 1.5 1.1 2 .3.3.8.5 1.2.5h.2c.6-.1 1.2-.4 1.4-1 .4-.7.5-1.5.3-2.3C7.4 2.6 7 2 6.4 1.6c-.8-.6-1.9-.4-2.5.4-.4.5-.6 1.1-.6 1.7v.1zM4 9.6c.3-.4.5-.9.5-1.4v-.4-.3c-.1-.8-.6-1.5-1.3-1.9-.4-.3-1-.3-1.4-.2-.5.2-.8.5-1 1C.5 7 .4 7.6.6 8.2c.2.8.7 1.4 1.5 1.7.2.1.5.2.8.2.4 0 .8-.2 1.1-.5zm6.1-3h.2c.4 0 .9-.2 1.2-.5.6-.5 1-1.2 1.1-2v-.4c0-.6-.1-1.2-.5-1.7-.6-.8-1.7-1-2.5-.4-.6.4-1 1-1.2 1.7-.2.8-.1 1.6.2 2.3.3.5.9.9 1.5 1zm5.2-.1c-.2-.5-.5-.8-1-1-.5-.1-1-.1-1.4.2-.7.4-1.2 1.1-1.3 1.9v.6c0 .5.1 1 .4 1.4.3.4.8.6 1.2.6.3 0 .5-.1.8-.2.7-.3 1.2-1 1.4-1.7.2-.7.2-1.3-.1-1.8zM13 12.1c-.1-.6-.4-1.1-.9-1.5l-.5-.5c-.3-.3-.6-.6-.8-1-.1-.2-.2-.4-.4-.6s-.1-.3-.3-.5c-.3-.6-1-1-1.8-1h-.6c-.7 0-1.4.4-1.8 1-.1.2-.3.4-.4.6-.1.2-.2.4-.3.5-.3.4-.5.7-.8 1l-.5.5c-.5.4-.8 1-.9 1.6v.5c0 .6.3 1.2.7 1.6.3.2.6.4.9.4H5c.3 0 .5 0 .8-.1l.6-.1.3-.1c.4-.1.8-.1 1.2-.1H8c.4 0 .8.1 1.2.2l.3.1.6.1c.4.1.8.1 1.2 0 .3 0 .7-.2.9-.4.4-.4.6-.9.6-1.5.2-.3.2-.5.2-.7z" fill="#7a7a7a"/></svg>