<svg id="Layer_1" data-name="Layer 1" xmlns="http://www.w3.org/2000/svg" viewBox="0 0 52 52"><defs><style>.cls-1,.cls-2{fill:none;stroke-linecap:round;stroke-linejoin:round}.cls-1{stroke:#4d4d4f;stroke-width:2px}.cls-2{stroke:#0079c0}</style></defs><path class="cls-1" d="M14.33 18.69A5.58 5.58 0 0 0 18.61 20a5.52 5.52 0 0 0 4.25-3 9.17 9.17 0 0 0 .71-7 8.61 8.61 0 0 0-3.69-5.31 5.32 5.32 0 0 0-7.35 1.26 8.25 8.25 0 0 0-1.66 5.18c0 .46.06.91.12 1.37a9.26 9.26 0 0 0 3.34 6.19zM11.44 30.71a6.69 6.69 0 0 0 1.56-4.4c0-.24 0-.54-.08-.83a9.09 9.09 0 0 0-4.24-6.81 4.81 4.81 0 0 0-7.11 2.45 7.67 7.67 0 0 0-.14 5.3 8.24 8.24 0 0 0 4.38 5.39 4.69 4.69 0 0 0 5.63-1.1zM37.67 18.69A5.58 5.58 0 0 1 33.39 20a5.52 5.52 0 0 1-4.25-3 9.17 9.17 0 0 1-.71-7 8.61 8.61 0 0 1 3.69-5.31 5.32 5.32 0 0 1 7.35 1.26 8.25 8.25 0 0 1 1.66 5.18c0 .46-.06.91-.12 1.37a9.26 9.26 0 0 1-3.34 6.19zM40.56 30.71a6.69 6.69 0 0 1-1.56-4.4c0-.24 0-.54.08-.83a9.09 9.09 0 0 1 4.24-6.81 4.81 4.81 0 0 1 7.11 2.45 7.67 7.67 0 0 1 .14 5.3 8.24 8.24 0 0 1-4.38 5.39 4.69 4.69 0 0 1-5.63-1.1zM42.3 40.66a.22.22 0 0 0 0-.08 9.12 9.12 0 0 0-2.76-4.85 19.77 19.77 0 0 0-1.62-1.55 33 33 0 0 1-3-3.7c-.89-1.25-1.55-2.67-2.42-3.94a6.28 6.28 0 0 0-5.44-3.06h-2.14a6.28 6.28 0 0 0-5.44 3.06c-.87 1.27-1.53 2.69-2.42 3.94a33 33 0 0 1-3 3.7 19.77 19.77 0 0 0-1.62 1.55 9.12 9.12 0 0 0-2.76 4.85.22.22 0 0 0 0 .08A6.89 6.89 0 0 0 11.62 47a4.74 4.74 0 0 0 2.66 1.17 12.28 12.28 0 0 0 4-.18c.94-.14 1.87-.33 2.81-.51a39.71 39.71 0 0 1 4.7-.68h.48a39.71 39.71 0 0 1 4.7.68c.94.18 1.87.37 2.81.51a12.28 12.28 0 0 0 4 .18 4.74 4.74 0 0 0 2.6-1.17 6.41 6.41 0 0 0 2.07-4.74 6.31 6.31 0 0 0-.15-1.6z"/><path class="cls-2" d="M34.22 44.89h.08a14.47 14.47 0 0 0 1.61.21 6.53 6.53 0 0 0 1.33 0 2 2 0 0 0 .94-.32 3.36 3.36 0 0 0 1.11-2.49v-.08M12.83 41.12V41.34a3.51 3.51 0 0 0-.08.84v.08a2.67 2.67 0 0 0 .54 1.82 2.53 2.53 0 0 0 1.51 1 9.41 9.41 0 0 0 2.94-.17h.08M30.91 30c-.34-.6-.67-1.16-1-1.66-1.07-1.56-2.08-1.71-2.75-1.7h-1.49"/></svg>