<svg id="Layer_1" data-name="Layer 1" xmlns="http://www.w3.org/2000/svg" viewBox="0 0 52 52"><defs><style>.cls-2,.cls-3{fill:none;stroke:#0079c0;stroke-linecap:round;stroke-linejoin:round;stroke-width:2px}.cls-3{stroke:#4d4d4f}</style></defs><circle cx="26" cy="26" r="20.02" fill="none"/><path class="cls-2" d="M43.4 16.09A20 20 0 0 1 16.09 43.4M8.6 35.9A20 20 0 0 1 35.9 8.6"/><path class="cls-3" d="M13.1 31.41L1 43.51 8.49 51 20.6 38.89"/><path class="cls-3" d="M20.6 38.89a5.6 5.6 0 1 0 3-10.52 5.6 5.6 0 0 0-11.19.38 5.53 5.53 0 0 0 .68 2.66"/><path class="cls-2" d="M19.05 27.09a2.06 2.06 0 0 0-.95-.24 2 2 0 0 0-1.7.94M8.6 45.62l5.35-5.34M16.25 37.98l.55-.55"/><path class="cls-3" d="M31.41 13.1L43.51 1 51 8.49 38.89 20.6"/><path class="cls-3" d="M38.89 20.6a5.6 5.6 0 1 1-10.52 3 5.6 5.6 0 0 1 .38-11.19 5.53 5.53 0 0 1 2.66.68"/><path class="cls-2" d="M27.09 19.05a2.06 2.06 0 0 1-.24-.95 2 2 0 0 1 .94-1.7M45.62 8.6l-5.34 5.35M37.98 16.25l-.55.55"/></svg>