<svg id="Layer_1" data-name="Layer 1" xmlns="http://www.w3.org/2000/svg" viewBox="0 0 52 52"><defs><style>.cls-1{fill:none;stroke:#4d4d4f;stroke-linecap:round;stroke-linejoin:round;stroke-width:2px}</style></defs><path class="cls-1" d="M1 37.93s14-2.28 25 4.56M26 42.49c11-6.84 25-4.56 25-4.56M1 42.08s14-2.28 25 4.56M26 46.64c11-6.84 25-4.56 25-4.56M26 38.34c11-6.84 25-4.56 25-4.56V5.72s-14-2.27-25 4.57C15 3.45 1 5.72 1 5.72v28.06s14-2.28 25 4.56zM26 10.29v28.05M21.85 22.7a41.19 41.19 0 0 0-16.57-2.78M21.85 27.12a41.22 41.22 0 0 0-16.57-2.79M30.39 13.92A41.22 41.22 0 0 1 47 11.13M30.39 18.33A41.19 41.19 0 0 1 47 15.55"/><path d="M30.39 22.75a35.44 35.44 0 0 1 7.14-2.09" stroke="#0079c0" stroke-linecap="round" stroke-linejoin="round" stroke-width="2" fill="none"/><path class="cls-1" d="M21.85 13.57a35.48 35.48 0 0 0-6.84-2M21.85 18.5a34.78 34.78 0 0 0-6.84-2"/><path d="M11.37 15.71a39 39 0 0 0-6-.49l-.06-5a24.26 24.26 0 0 1 6.14.64c-.04 1.68-.06 3.19-.08 4.85z" fill="#0079c0" stroke="#0079c0" stroke-linecap="round" stroke-linejoin="round" stroke-width="2"/></svg>