<svg id="Layer_1" data-name="Layer 1" xmlns="http://www.w3.org/2000/svg" viewBox="0 0 52 52"><defs><style>.cls-3{fill:#0079c0}.cls-2,.cls-5{fill:none;stroke-linecap:round;stroke-linejoin:round;stroke:#4d4d4f;stroke-width:2px}.cls-5{stroke:#0079c0}</style></defs><path d="M23.31 23.47h-6.75a.58.58 0 0 0-.49.28l-1.28 2.17a.6.6 0 0 0-.08.29v3.42a.47.47 0 0 0 0 .17l1.51 4.71a.56.56 0 0 0 .53.39h12.79A.56.56 0 0 0 30 34l-6.23-10.3a.55.55 0 0 0-.46-.23z" opacity=".5" fill="#0079c0"/><path class="cls-2" d="M11.7 7.32h6.06M17.76 7.32h6.05"/><path class="cls-3" d="M17.78 21.2l-2.86.5-4.54 7.19 4.37.18 3.03-7.87z"/><circle class="cls-3" cx="18.23" cy="19.05" r=".76"/><circle class="cls-3" cx="16.92" cy="14.62" r=".66"/><circle class="cls-3" cx="18.28" cy="12.2" r=".43"/><path class="cls-2" d="M14.73 31.53H7.3a1.29 1.29 0 0 1-1.08-2l7.16-10.91a1.29 1.29 0 0 0 .22-.71V7.32M13.6 7.32h8.32v10.59a1.28 1.28 0 0 0 .21.71l.49.73"/><path d="M18.21 4.2h-.9a1.53 1.53 0 0 0-1.53 1.53v3.34a.61.61 0 0 0 .61.61h2.74a.61.61 0 0 0 .61-.61V5.73a1.54 1.54 0 0 0-1.53-1.53z" fill="#4d4d4f"/><path class="cls-5" d="M34.47 13.09h3.03M34.47 18.77h3.03M34.47 15.93h1.89M34.47 24.44h3.03M34.47 21.6h1.89M35.05 27.28h1.31"/><path class="cls-2" d="M34.09 25.05V4.48l-2.65-2.64h11.35l-2.64 2.64v28.76s-.38 3-3 3-3-3-3-3"/><circle class="cls-2" cx="24.73" cy="29.31" r="10.18"/><path class="cls-2" d="M31.92 36.5l3.09 3.09"/><path class="cls-2" transform="rotate(-45 40.0400786 44.6148564)" d="M38.76 38.87h2.56v11.48h-2.56z"/><path d="M25.38 22.42a6.49 6.49 0 0 1 3.46 1.26 6.58 6.58 0 0 1 2.67 5.74" stroke="#0079c0" fill="none" stroke-linecap="round" stroke-linejoin="round"/></svg>