<svg id="Layer_1" xmlns="http://www.w3.org/2000/svg" viewBox="0 0 198.4 43.9"><style>.st7{fill:#4d4d4f}</style><path class="st7" d="M79.6 26.9H0v1.3l80.5.1zM100.1 28.4h90.5V27l-89.6-.1zM6.7 8.7h5.1c.5 0 .9 0 1.6.5.7.5.6 1.5.6 1.5v13.5h7V6.8c-.1-.9-.3-1.7-1.1-2.3-.9-.5-1.7-.8-2.5-.8H9.5l-2.8 4V3.9L0 3.7v20.5h6.7V8.7zM24.4 23.7c.8.6 1.7.9 2.5.9h7.9l2.8-4-.1 3.9h6.7V4.1h-6.7v15.5h-5.1c-.5 0-.9 0-1.6-.5-.7-.6-.6-1.5-.6-1.5V4h-7v17.4c.1.9.4 1.7 1.2 2.3zM111.6 4.1v20.5h6.7V9.1h3.8c.5 0 .9 0 1.6.5.7.5.6 1.5.6 1.5v13.5h7V8.9h3.8c.5 0 .9 0 1.6.5.7.5.6 1.5.6 1.5v13.5h7V7c-.1-.9-.3-1.7-1.1-2.3-.8-.6-1.7-.9-2.5-.9-.5 0-6.4.1-6.4.1l-3 3.6v-.3c-.1-.9-.3-1.7-1.1-2.3-.8-.6-1.7-.9-2.5-.9-.5 0-6.4.1-6.4.1l-3 3.6V4.1h-6.7zM59.3 24.5V9.3h5.1L67.8 4H46.2v5.3h6.1v15.2zM175 24.4l3.5-5.3 3.6 5.3h7.4l-7.3-10.7 6.6-9.8h-7.4l-3 4.2-2.8-4.2h-7.3l6.5 9.8-7.2 10.7zM101.7 12.2h-6.2c-1.3 0-2.6.3-3.5.9-1.6 1.2-2.2 2.2-2 6.4.1 4.2 3.7 4.9 5 5h5.2l2.5-3.1v3.1h6.6V8.3c0-.9-.4-1.8-1.2-2.9-.9-1.1-2.8-1.3-3.6-1.3H94.2l-3 5.3h10.7c.9 0 .9 1.1.9 1.3.2 1.3-1.1 1.5-1.1 1.5zm.7 7s-4.5.2-5.1-.1c-.8-.2-.9-1-.9-1.6 0-.7.5-1.2 1-1.3.6-.1 5-.1 5-.1v3.1z"/><path class="st7" d="M99.9 43.7l-5.6-8.8 4.5-8h-6.4L90.9 29l-6.2-9.3s1.3-1 2.2-1.9c1.3-1.3 2.3-3 2.2-6.1-.1-3.4-1.8-7.6-5.3-7.7H68.6v20.4h6.8v-7.5l11.7 18.3-5.4 8.4h7.6L91 41l1.8 2.7h7.1zM80.6 15.1h-5.3v-6h5.4c1.8 0 2 1.9 2 3 0 2.9-1.3 3-2.1 3zM158 12.1h-6.2c-1.3 0-2.6.3-3.5.9-1.6 1.2-2.2 2.2-2 6.4.1 4.2 3.7 4.9 5 5h5.2l2.5-3.1v3.1h6.6V8.2c0-.9-.4-1.8-1.2-2.9-.9-1.1-2.8-1.3-3.6-1.3h-10.3l-3 5.3h10.7c.9 0 .9 1.1.9 1.3.1 1.3-1.1 1.5-1.1 1.5zm.7 7.1s-4.5.2-5.1-.1c-.8-.2-.9-1-.9-1.6 0-.7.5-1.2 1-1.3.6-.1 5-.1 5-.1v3.1zM0 0h190.6v1.4H0zM102.4 31.9v11.2h5.9v-1.9h-3.8v-9.3zM113.9 31.9h-2.6L108.5 43h2.2l.5-2.3h2.8l.5 2.3h2.2l-2.8-11.1zm-2.4 7l1-5 1 5h-2zM122.4 37.2c1.1-.3 1.6-1.3 1.6-2.5 0-2.1-1.3-2.8-3-2.8h-3.6V43h3.6c2.5 0 3.3-1.5 3.3-3.3 0-1.4-.7-2.3-1.9-2.5zm-2.8-3.6h.8c1 0 1.5.4 1.5 1.4 0 1-.5 1.5-1.7 1.5h-.6v-2.9zm.8 7.8h-.8v-3.3h.9c.9 0 1.6.4 1.6 1.7 0 1.2-.7 1.6-1.7 1.6zM129 43.3c3.2 0 3.6-2.4 3.6-5.8s-.4-5.8-3.6-5.8-3.6 2.4-3.6 5.8.4 5.8 3.6 5.8zm0-9.9c1.3 0 1.5 1.2 1.5 4.1 0 3-.2 4.1-1.5 4.1s-1.5-1.1-1.5-4.1c.1-3 .3-4.1 1.5-4.1zM141 43.1c-.4-.3-.5-.9-.5-2.1 0-2.3-.2-3.2-1.7-3.4 1.2-.3 1.8-1.3 1.8-2.7 0-1.9-1.1-2.9-2.8-2.9h-3.9v11.1h2.1v-4.7h1.1c.9 0 1.2.5 1.3 1.4l.1 2.1c0 .4.1.9.3 1.2h2.2zm-4.1-6.3h-.9v-3.2h1c1 0 1.5.5 1.5 1.5 0 1.2-.6 1.7-1.6 1.7zM144.2 31.9L141.4 43h2.2l.5-2.3h2.8l.5 2.3h2.2l-2.8-11.1h-2.6zm.2 7l1-5 1 5h-2zM153.4 43.1v-9.3h2.3v-1.9H149v1.9h2.3v9.3zM163.6 37.5c0-3.4-.4-5.8-3.6-5.8s-3.6 2.4-3.6 5.8.4 5.8 3.6 5.8 3.6-2.4 3.6-5.8zm-3.6 4.1c-1.3 0-1.5-1.1-1.5-4.1 0-3 .2-4.1 1.5-4.1s1.5 1.2 1.5 4.1c0 3-.3 4.1-1.5 4.1zM172 43c-.4-.2-.5-.8-.5-2 0-2.3-.3-3.2-1.7-3.4 1.2-.3 1.8-1.3 1.8-2.7 0-1.9-1.1-2.9-2.8-2.9h-3.9v11.1h2.1v-4.7h1.1c.9 0 1.2.5 1.3 1.4l.1 2.1c0 .4.1.9.3 1.2l2.2-.1zm-4.1-6.2h-.9v-3.2h1c1 0 1.5.5 1.5 1.5 0 1.2-.6 1.7-1.6 1.7zM173.2 31.9h2.1V43h-2.1zM179 38.2h3.6v-1.8H179v-2.6h3.8v-1.9h-5.9v11.2h6v-1.9H179zM183.6 39.6v.4c0 2.1.9 3.2 3.4 3.2 2.3 0 3.7-1.1 3.7-3.4 0-1.4-.4-2.2-2-2.9l-1.6-.7c-.9-.4-1.1-.8-1.1-1.5s.3-1.3 1.2-1.3c.8 0 1.2.6 1.2 1.7h2v-.3c0-2.1-1.4-3-3.3-3-2 0-3.3 1.1-3.3 3.3 0 1.9.9 2.7 2.8 3.4 1.4.5 1.9.9 1.9 1.9 0 .9-.6 1.4-1.3 1.4-1.1 0-1.4-.7-1.4-1.7v-.3h-2.2zM195.7 0c-1.5 0-2.8 1.2-2.8 2.8 0 1.6 1.2 2.8 2.8 2.8 1.5 0 2.8-1.2 2.8-2.8-.1-1.6-1.3-2.8-2.8-2.8zm0 5.2c-1.2 0-2.2-1-2.2-2.4 0-1.3 1-2.4 2.2-2.4 1.2 0 2.2 1.1 2.2 2.4 0 1.3-1 2.4-2.2 2.4z"/><path class="st7" d="M196.2 2.9c.3-.1.6-.4.6-.8 0-.3-.1-.5-.3-.6-.2-.1-.5-.2-1-.2-.4 0-.6 0-.9.1v3.1h.5V3.1h.3c.4 0 .6.1.7.5.1.4.1.7.2.8h.5c0-.1-.1-.3-.2-.8.1-.4-.1-.7-.4-.7zm-.7-.2h-.4V1.6h.4c.6 0 .8.3.8.5 0 .4-.4.6-.8.6z"/></svg>