<svg id="Layer_1" xmlns="http://www.w3.org/2000/svg" viewBox="0 0 299.1 50.5"><style>.st0{fill:#0079c0}</style><path class="st0" d="M11.8 17h23V6.5H11.9C8.4 6.5 5.2 7 3.1 9 .6 11.5 0 14.5 0 18.2v15.2c0 2.8.4 5.1 1.8 7.1 2.4 3.6 6.7 4.3 11.4 4.3h21.7V34.3H11.8V17zm50.8 17.7H49.4v-18h13.1l.1 18zM64 5.8H49.6c-3.6 0-6.5.6-8.8 2.6-2.7 2.4-3.2 5.5-3.2 9.5v15.6c0 3 .1 5.4 1.4 7.5 2.4 3.6 7 4.4 11.8 4.4H64c3.2 0 5.6-.2 7.8-2.5 2.5-2.4 2.6-5.2 2.6-8.7V17.6c0-3.7-.2-6.5-2.7-9.1-2.2-2.2-4.5-2.7-7.7-2.7m38.5 15.1H89.3v-3.8h21.9V6.5H87.3c-2.8 0-4.8-.1-6.9 1.7-2.2 1.9-2.7 4.1-2.7 7v6.3c0 2.9.7 4.9 2.9 6.8 2.1 1.8 4.2 1.8 6.9 1.8h14.3v4.2H77.6v10.5h26.1c2.9 0 5.3-.5 7.1-2.1 2-1.9 2.7-3.8 2.7-6.5v-5.7c0-2.8-.3-4.7-1.9-6.9-2-2.7-5.4-2.7-9.1-2.7m13.6 23.8h32.6V34.1h-20.2v-4.4h20.2v-8.6h-20.6v-4.3h20.6V6.5h-32.6v38.2zm61.3-10.4h-13.2V16.2h13.2v18.1zm11.1 3.9c.4-.9.5-1.7.5-2.7V19.7c0-4.5 0-8-3-11.2-2.2-2.3-4.6-2.7-7.7-2.7h-14.5c-3.4 0-6.2.2-8.4 2.5-2.5 2.6-3.1 5.7-3.1 9.6v15.9c0 3.1.6 5.6 1.9 7.6 2.5 3.7 6.5 3.9 10.9 3.9h11.7c.2 1.2.4 1.9 1.2 2.8 1.5 1.6 2.7 2.4 4.7 2.4h9.1V39.8h-4.2c.4-.6.7-.9.9-1.6m45.7-31.7h12.1v38.1h-12.1V6.5zm42.3 17.6L264.9 6.5h-14.3v38.2h11.7V21.8L277 44.7h11.4V6.5h-11.9v17.6zm-58.6 11H205V6.5h-11.7v30.2c0 2.6.8 4.2 2.6 6.1 1.8 2 5.1 2.5 8.5 2.5H220c2.9 0 5-.2 7.1-2.2 2.5-2.2 2.6-5 2.6-8.3V6.5h-11.9l.1 28.6zM294.5 15.1c-2.2 0-3.6-1.7-3.6-3.9 0-2.3 1.6-3.9 3.6-3.9s3.6 1.6 3.6 3.9-1.6 3.9-3.6 3.9m0-8.6c-2.5 0-4.6 1.9-4.6 4.7 0 2.7 1.9 4.7 4.6 4.7 2.5 0 4.6-1.9 4.6-4.7s-2.2-4.7-4.6-4.7"/><path class="st0" d="M293.5 11V9.4h1c.5 0 1.1.1 1.1.7 0 .8-.6.8-1.2.8l-.9.1zm3.1-.8c0-1.1-.6-1.5-1.9-1.5h-2v5.2h.9v-2.2h.8l1.3 2.2h1l-1.5-2.3c.8-.1 1.4-.5 1.4-1.4"/></svg>