<svg id="Layer_1" xmlns="http://www.w3.org/2000/svg" viewBox="0 0 299.1 72.1"><style>.st0{fill:#0079c0}</style><path class="st0" d="M11.8 11.2h23V.7H11.9c-3.5 0-6.7.5-8.8 2.5C.6 5.7 0 8.7 0 12.4v15.2c0 2.8.4 5.1 1.8 7.1C4.2 38.3 8.5 39 13.2 39h21.7V28.5H11.8V11.2zM62.6 28.9H49.4v-18h13.1v18zM64 0H49.6c-3.6 0-6.5.6-8.8 2.6-2.7 2.4-3.2 5.5-3.2 9.5v15.6c0 3 .1 5.4 1.4 7.5 2.4 3.6 7 4.4 11.8 4.4H64c3.2 0 5.6-.2 7.8-2.5 2.5-2.4 2.6-5.2 2.6-8.7V11.8c0-3.7-.2-6.5-2.7-9.1C69.5.5 67.2 0 64 0M102.5 15.1H89.3v-3.8h21.9V.7H87.3c-2.8 0-4.8-.1-6.9 1.7-2.2 1.9-2.7 4.1-2.7 7v6.3c0 2.9.7 4.9 2.9 6.8 2.1 1.8 4.2 1.8 6.9 1.8h14.3v4.2H77.6V39h26.1c2.9 0 5.3-.5 7.1-2.1 2-1.9 2.7-3.8 2.7-6.5v-5.7c0-2.8-.3-4.7-1.9-6.9-2-2.7-5.4-2.7-9.1-2.7M116.1 38.9h32.6V28.3h-20.2v-4.4h20.2v-8.6h-20.6V11h20.6V.7h-32.6zM177.4 28.5h-13.2V10.4h13.2v18.1zm11.1 3.9c.4-.9.5-1.7.5-2.7V13.9c0-4.5 0-8-3-11.2-2.2-2.3-4.6-2.7-7.7-2.7h-14.5c-3.4 0-6.2.2-8.4 2.5-2.5 2.6-3.1 5.7-3.1 9.6V28c0 3.1.6 5.6 1.9 7.6 2.5 3.7 6.5 3.9 10.9 3.9h11.7c.2 1.2.4 1.9 1.2 2.8 1.5 1.6 2.7 2.4 4.7 2.4h9.1V34h-4.2c.4-.6.7-.9.9-1.6M234.2.7h12.1v38.1h-12.1zM276.5 18.3L264.9.7h-14.3v38.2h11.7V16L277 38.9h11.4V.7h-11.9zM217.9 29.3H205V.7h-11.7v30.2c0 2.6.8 4.2 2.6 6.1 1.8 2 5.1 2.5 8.5 2.5H220c2.9 0 5-.2 7.1-2.2 2.5-2.2 2.6-5 2.6-8.3V.7h-11.9v28.6z"/><g><path class="st0" d="M294.5 9.3c-2.2 0-3.6-1.7-3.6-3.9 0-2.3 1.6-3.9 3.6-3.9s3.6 1.6 3.6 3.9-1.6 3.9-3.6 3.9m0-8.6c-2.5 0-4.6 1.9-4.6 4.7 0 2.7 1.9 4.7 4.6 4.7 2.5 0 4.6-1.9 4.6-4.7 0-2.8-2.2-4.7-4.6-4.7"/><path class="st0" d="M293.5 5.2V3.6h1c.5 0 1.1.1 1.1.7 0 .8-.6.8-1.2.8h-.9zm3.1-.8c0-1.1-.6-1.5-1.9-1.5h-2v5.2h.9V5.9h.8l1.3 2.2h1l-1.5-2.3c.8-.1 1.4-.5 1.4-1.4"/></g><g><path class="st0" d="M271.6 56.5h-2.9v-3.1h-3.3v3.1h-2.1v2.6h2.1v5c0 2.3 1.7 3.2 3.9 3.2.8 0 1.6-.1 2.3-.3v-2.7c-.3.3-1 .3-1.3.3-1.4 0-1.5-.8-1.5-2v-3.5h2.9v-2.6zm-19.7 10.6h3.3v-5.3c0-1.4.3-2.7 2-2.7s1.7 1.6 1.7 2.8v5.2h3.3v-5.8c0-2.8-.6-5-3.9-5-1.6 0-2.7.9-3.1 1.7v-1.4h-3.1v10.5zm-9.6-6.5c.1-1 .9-2 2.3-2 1.2 0 2 .9 2 2h-4.3zm4.8 3c-.5.7-1.3 1.3-2.3 1.3-1.3 0-2.2-.8-2.5-2h7.6v-1c0-3.4-1.9-5.5-5-5.5-3.3 0-5.9 2.2-5.9 5.5 0 3.4 2.6 5.5 5.9 5.5 1.7 0 3.4-.8 4.5-2.1l-2.3-1.7zm-26.7 3.5h3.3v-5.3c0-1.4.3-2.7 2-2.7 1.5 0 1.5 1.6 1.5 2.4v5.6h3.3v-5.6c0-1.3.5-2.4 2-2.4 1.1 0 1.4.8 1.4 1.8v6.2h3.3v-6.2c0-2.6-.9-4.6-3.7-4.6-1.6 0-2.6.5-3.4 1.9-.6-1.3-1.8-1.9-3.3-1.9-1.6 0-2.7.9-3.1 1.7v-1.4h-3.1v10.5zm-9.5-6.5c.1-1 .9-2 2.3-2 1.2 0 2 .9 2 2h-4.3zm4.8 3c-.5.7-1.3 1.3-2.3 1.3-1.3 0-2.2-.8-2.5-2h7.6v-1c0-3.4-1.9-5.5-5-5.5-3.3 0-5.9 2.2-5.9 5.5 0 3.4 2.6 5.5 5.9 5.5 1.7 0 3.4-.8 4.5-2.1l-2.3-1.7zm-13.4 3.5h3.3V50.6h-3.3v16.5zm-10.4-5.3c0-1.6 1-2.7 2.6-2.7s2.6 1.1 2.6 2.7-1 2.7-2.6 2.7-2.6-1.1-2.6-2.7m-3 10.3h3.3V66c.7 1 2 1.4 3.4 1.4 3 0 4.8-2.7 4.8-5.6 0-3.2-2.1-5.5-5.2-5.5-1.5 0-2.7.9-3.2 1.7v-1.4h-3v15.5zm-10.7-10.3c0-1.6 1-2.7 2.6-2.7s2.6 1.1 2.6 2.7-1 2.7-2.6 2.7c-1.7 0-2.6-1.1-2.6-2.7m-3 10.3h3.3V66c.7 1 2 1.4 3.4 1.4 3 0 4.8-2.7 4.8-5.6 0-3.2-2.1-5.5-5.2-5.5-1.5 0-2.7.9-3.2 1.7v-1.4h-3v15.5zm-2.6-15.6h-3.3v5.3c0 1.4-.3 2.7-2 2.7s-1.7-1.6-1.7-2.8v-5.2h-3.3v5.8c0 2.8.6 5 3.9 5 1.6 0 2.7-.9 3.1-1.7V67h3.1V56.5zm-12.4-3.6c-1.3-1.2-3-1.6-4.7-1.6-3 0-5.9 1.7-5.9 5 0 5.1 7.2 3.6 7.2 6.4 0 1.1-1.2 1.6-2.3 1.6-1.1 0-2.3-.5-3-1.5l-2.4 2.7c1.5 1.3 3.2 1.9 5.2 1.9 3.2 0 5.9-1.6 5.9-5.1 0-5.4-7.1-3.6-7.1-6.4 0-1.2 1.3-1.6 2.3-1.6.8 0 1.9.3 2.5 1l2.3-2.4zm-29.3-2.3v16.5h3.3v-5.3c0-1.4.3-2.7 2-2.7s1.7 1.6 1.7 2.8v5.2h3.3v-5.8c0-2.8-.6-5-3.9-5-1.6 0-2.7.9-3 1.7v-7.3h-3.4zm-1.6 5.9h-2.9v-3.1h-3.3v3.1H121v2.6h2.1v5c0 2.3 1.7 3.2 3.9 3.2.8 0 1.6-.1 2.3-.3v-2.7c-.3.3-1 .3-1.3.3-1.4 0-1.5-.8-1.5-2v-3.5h2.9v-2.6zm-12.8 10.6h3.3V50.6h-3.3v16.5zm-5.1-4.6v.7c0 1.3-1.2 2-2.5 2-.7 0-1.5-.4-1.5-1.2 0-1.4 2.2-1.5 3.2-1.5h.8zm0 4.6h3v-5.4c0-3.5-1-5.5-4.8-5.5-1.7 0-3.5.6-4.7 1.7l1.7 1.8c.7-.8 1.6-1.3 2.7-1.3s2.1.7 2.1 1.9c-2.7 0-7.2.1-7.2 3.7 0 2.1 1.8 3.3 3.8 3.3 1.3 0 2.6-.5 3.4-1.6v1.4zm-16.2-6.5c.1-1 .9-2 2.3-2 1.2 0 2 .9 2 2h-4.3zm4.8 3c-.5.7-1.3 1.3-2.3 1.3-1.3 0-2.2-.8-2.5-2h7.6v-1c0-3.4-1.9-5.5-5-5.5-3.3 0-5.9 2.2-5.9 5.5 0 3.4 2.6 5.5 5.9 5.5 1.7 0 3.4-.8 4.5-2.1l-2.3-1.7zm-23.9 3.5h3.4v-6.7h6.6v6.7h3.4V51.7h-3.4v5.7h-6.6v-5.7h-3.4v15.4zm-8.5-10.6h-2.9v-3.1h-3.3v3.1h-2.1v2.6h2.1v5c0 2.3 1.7 3.2 3.9 3.2.8 0 1.6-.1 2.3-.3v-2.7c-.3.3-1 .3-1.3.3-1.4 0-1.5-.8-1.5-2v-3.5h2.9v-2.6zM47.9 67.1h3.3v-5.3c0-1.4.3-2.7 2-2.7s1.7 1.6 1.7 2.8v5.2h3.3v-5.8c0-2.8-.6-5-3.9-5-1.6 0-2.7.9-3.1 1.7v-1.4h-3.1v10.5zm-5.8-13.9c0 1 .8 1.9 1.9 1.9 1 0 1.9-.8 1.9-1.9 0-1-.8-1.9-1.9-1.9-1.1 0-1.9.8-1.9 1.9m.2 13.9h3.3V56.5h-3.3v10.6zm-10.4-5.3c0-1.6 1-2.7 2.6-2.7s2.6 1.1 2.6 2.7-1 2.7-2.6 2.7-2.6-1.1-2.6-2.7m-3.3 0c0 3.4 2.6 5.5 5.9 5.5s5.9-2.2 5.9-5.5c0-3.4-2.6-5.5-5.9-5.5s-5.9 2.1-5.9 5.5m-2.1-10.1h-3.4v9.9c0 1.2 0 2.9-1.6 2.9-.7 0-1.4-.6-1.5-1.3l-3.1.8c.5 2.5 2.3 3.6 4.7 3.6 4.2 0 4.9-2.7 4.9-5.6V51.7z"/></g></svg>