<svg id="Layer_1" xmlns="http://www.w3.org/2000/svg" viewBox="0 0 200.4 63.6"><style>.st3{fill:#fff}</style><path class="st3" d="M80.6 27.9H1v1.3l80.5.1zM101.1 29.4h90.5V28l-89.6-.1zM7.7 9.7h5.1c.5 0 .9 0 1.6.5.7.5.6 1.5.6 1.5v13.5h7V7.8c-.1-.9-.3-1.7-1.1-2.3-.9-.5-1.7-.8-2.5-.8h-7.9l-2.8 4V4.9L1 4.7v20.5h6.7V9.7zM25.4 24.7c.8.6 1.7.9 2.5.9h7.9l2.8-4-.1 3.9h6.7V5.1h-6.7v15.5h-5.1c-.5 0-.9 0-1.6-.5-.7-.6-.6-1.5-.6-1.5V5h-7v17.4c.1.9.4 1.7 1.2 2.3zM112.6 5.1v20.5h6.7V10.1h3.8c.5 0 .9 0 1.6.5.7.5.6 1.5.6 1.5v13.5h7V9.9h3.8c.5 0 .9 0 1.6.5.7.5.6 1.5.6 1.5v13.5h7V8c-.1-.9-.3-1.7-1.1-2.3-.8-.6-1.7-.9-2.5-.9-.5 0-6.4.1-6.4.1l-3 3.6v-.3c-.1-.9-.3-1.7-1.1-2.3-.8-.6-1.7-.9-2.5-.9-.5 0-6.4.1-6.4.1l-3 3.6V5.1h-6.7zM60.3 25.5V10.3h5.1L68.8 5H47.2v5.3h6.1v15.2zM176 25.4l3.5-5.3 3.6 5.3h7.4l-7.3-10.7 6.6-9.8h-7.4l-2.9 4.2-2.9-4.2h-7.3l6.5 9.8-7.2 10.7zM102.7 13.2h-6.2c-1.3 0-2.6.3-3.5.9-1.6 1.2-2.2 2.2-2 6.4.1 4.2 3.7 4.9 5 5h5.2l2.5-3.1v3.1h6.6V9.3c0-.9-.4-1.8-1.2-2.9-.9-1.1-2.8-1.3-3.6-1.3H95.2l-3 5.3h10.7c.9 0 .9 1.1.9 1.3.2 1.3-1.1 1.5-1.1 1.5zm.7 7s-4.5.2-5.1-.1c-.8-.2-.9-1-.9-1.6 0-.7.5-1.2 1-1.3.6-.1 5-.1 5-.1v3.1z"/><path class="st3" d="M100.9 44.7l-5.6-8.8 4.5-8h-6.4L91.9 30l-6.2-9.3s1.3-1 2.2-1.9c1.3-1.3 2.3-3 2.2-6.1-.1-3.4-1.8-7.6-5.3-7.7H69.6v20.4h6.8v-7.5l11.7 18.3-5.4 8.4h7.6L92 42l1.8 2.7h7.1zM81.6 16.1h-5.3v-6h5.4c1.8 0 2 1.9 2 3 0 2.9-1.3 3-2.1 3zM159 13.1h-6.2c-1.3 0-2.6.3-3.5.9-1.6 1.2-2.2 2.2-2 6.4.1 4.2 3.7 4.9 5 5h5.2l2.5-3.1v3.1h6.6V9.2c0-.9-.4-1.8-1.2-2.9-.9-1.1-2.8-1.3-3.6-1.3h-10.3l-3 5.3h10.7c.9 0 .9 1.1.9 1.3.1 1.3-1.1 1.5-1.1 1.5zm.7 7.1s-4.5.2-5.1-.1c-.8-.2-.9-1-.9-1.6 0-.7.5-1.2 1-1.3.6-.1 5-.1 5-.1v3.1zM1 1h190.6v1.4H1zM102.7 35.2v9.5h4.4v-1.6h-2.8v-7.9zM111.4 35.2h-2l-2.1 9.5h1.7l.4-2h2.1l.4 2h1.7l-2.2-9.5zm-1.8 5.9l.8-4.3.8 4.3h-1.6zM117.8 39.7c.8-.3 1.2-1.1 1.2-2.1 0-1.8-.9-2.4-2.3-2.4H114v9.5h2.7c1.9 0 2.5-1.3 2.5-2.8 0-1.2-.5-2-1.4-2.2zm-2.1-3.1h.6c.8 0 1.2.3 1.2 1.2 0 .9-.4 1.2-1.3 1.2h-.5v-2.4zm.6 6.7h-.6v-2.9h.7c.7 0 1.2.3 1.2 1.4 0 1.2-.6 1.5-1.3 1.5zM122.8 44.9c2.4 0 2.7-2 2.7-4.9s-.3-4.9-2.7-4.9c-2.4 0-2.7 2-2.7 4.9s.3 4.9 2.7 4.9zm0-8.5c.9 0 1.1 1 1.1 3.5 0 2.6-.2 3.5-1.1 3.5-.9 0-1.1-1-1.1-3.5s.1-3.5 1.1-3.5zM131.8 44.7c-.3-.3-.3-.8-.4-1.8 0-2-.2-2.7-1.3-2.9.9-.2 1.3-1.1 1.3-2.3 0-1.6-.8-2.4-2.1-2.4h-3v9.5h1.6v-4h.9c.6 0 .9.5.9 1.2v1.8c0 .4 0 .7.2 1h1.9zm-3.1-5.3h-.7v-2.7h.8c.7 0 1.1.4 1.1 1.3 0 1-.4 1.4-1.2 1.4zM134.2 35.2l-2.1 9.5h1.7l.4-2h2.1l.4 2h1.7l-2.1-9.5h-2.1zm.2 5.9l.8-4.3.8 4.3h-1.6zM141.1 44.7v-7.9h1.8v-1.6h-5.1v1.6h1.7v7.9zM148.8 40c0-2.9-.3-4.9-2.7-4.9-2.4 0-2.7 2-2.7 4.9s.3 4.9 2.7 4.9c2.4 0 2.7-2.1 2.7-4.9zm-2.7 3.5c-.9 0-1.1-1-1.1-3.5s.2-3.5 1.1-3.5c.9 0 1.1 1 1.1 3.5s-.1 3.5-1.1 3.5zM155.2 44.6c-.3-.2-.3-.7-.4-1.7 0-2-.2-2.7-1.3-2.9.9-.2 1.3-1.1 1.3-2.3 0-1.6-.8-2.4-2.1-2.4h-3v9.5h1.6v-4h.9c.6 0 .9.5.9 1.2v1.8c0 .4 0 .7.2 1l1.9-.2zm-3.2-5.2h-.7v-2.7h.8c.7 0 1.1.4 1.1 1.3.1 1-.4 1.4-1.2 1.4zM156.1 35.2h1.6v9.5h-1.6zM160.5 40.6h2.6V39h-2.6v-2.2h2.8v-1.6h-4.5v9.5h4.6v-1.6h-2.9zM163.9 41.7v.4c0 1.8.7 2.8 2.5 2.8 1.7 0 2.8-.9 2.8-2.9 0-1.2-.3-1.9-1.5-2.5l-1.2-.6c-.7-.3-.8-.7-.8-1.3 0-.6.2-1.1.9-1.1.6 0 .9.5.9 1.4h1.5v-.3c0-1.8-1-2.6-2.5-2.6s-2.5.9-2.5 2.8c0 1.6.7 2.3 2.1 2.9 1.1.4 1.4.8 1.4 1.6s-.5 1.2-1 1.2c-.8 0-1.1-.6-1.1-1.5v-.3h-1.5zM12.7 55.3c-.3 1.1-.6 2.3-.9 3.4-.2-1.2-.5-2.3-.9-3.5l-1.2-4.1H7.3l3.1 9.7H13l3.3-9.7H14l-1.3 4.2zM19.5 56.8H23V55h-3.5v-2h3.8v-1.8h-6v9.7h6.2v-1.8h-4zM24.2 53h2.6v7.9H29V53h2.7v-1.8h-7.5zM35.1 56.8h3.5V55h-3.5v-2h3.7v-1.8h-5.9v9.7H39v-1.8h-3.9zM45.8 56.3c.8-.3 1.7-1.2 1.7-2.4 0-.9-.3-1.6-.9-2-.7-.6-1.7-.8-3.1-.8-1.2 0-2.2.1-2.9.2v9.6h2.2V57h.6c.9 0 1.3.3 1.6 1.6.3 1.2.5 2 .7 2.3h2.2c-.2-.4-.5-1.6-.8-2.8-.2-.9-.6-1.5-1.3-1.8zm-2.2-.8h-.9v-2.7c.2 0 .5-.1 1-.1 1 0 1.6.5 1.6 1.3 0 .9-.6 1.5-1.7 1.5zM49.1 51.2h2.2v9.7h-2.2zM59.2 54c0 1.5 0 2.8.2 4.1-.4-1.1-1-2.3-1.6-3.3l-2-3.6h-2.6v9.7h2V58c0-1.6 0-3-.1-4.2h.1c.5 1.1 1.1 2.4 1.7 3.4l2.1 3.7h2.3v-9.7h-2V54zM65.4 51.2l-3 9.7h2.3l.7-2.5h2.8l.7 2.5h2.4l-3-9.7h-2.9zm.3 5.5l.6-2.1c.1-.6.3-1.3.4-1.9.1.6.3 1.3.5 1.9l.6 2.1h-2.1zM77.8 56.3c.8-.3 1.7-1.2 1.7-2.4 0-.9-.3-1.6-.9-2-.7-.6-1.7-.8-3.1-.8-1.2 0-2.2.1-2.9.2v9.6h2.2V57h.6c.9 0 1.3.3 1.6 1.6.3 1.2.5 2 .7 2.3h2.2c-.2-.4-.5-1.6-.8-2.8-.2-.9-.6-1.5-1.3-1.8zm-2.2-.8h-.9v-2.7c.2 0 .5-.1 1-.1 1 0 1.6.5 1.6 1.3.1.9-.6 1.5-1.7 1.5zM85 53.5c-.3.7-.5 1.3-.7 1.9-.2-.6-.4-1.2-.8-1.9l-1-2.3H80l3.1 5.7v4h2.2v-4l3.2-5.7H86l-1 2.3zM96.2 55.1c-1.3-.5-1.8-.8-1.8-1.4 0-.5.5-.9 1.4-.9.9 0 1.6.3 2 .5l.5-1.8c-.5-.3-1.3-.5-2.4-.5-2.3 0-3.7 1.3-3.7 2.9 0 1.4 1.1 2.3 2.7 2.9 1.2.4 1.6.8 1.6 1.4 0 .6-.5 1.1-1.5 1.1-.9 0-1.9-.3-2.4-.6l-.4 1.8c.5.3 1.6.6 2.7.6 2.7 0 3.9-1.4 3.9-3-.1-1.5-.9-2.4-2.6-3zM105.2 52.8c.8 0 1.4.2 1.8.4l.5-1.7c-.4-.2-1.3-.4-2.4-.4-2.9 0-5.3 1.8-5.3 5.1 0 2.8 1.7 4.9 5.1 4.9 1.2 0 2.1-.2 2.5-.4l-.3-1.7c-.4.2-1.2.3-1.8.3-1.9 0-3.1-1.2-3.1-3.2-.1-2.3 1.2-3.3 3-3.3zM108.8 51.2h2.2v9.7h-2.2zM115.1 56.8h3.6V55h-3.6v-2h3.8v-1.8h-6v9.7h6.2v-1.8h-4zM126.6 54c0 1.5 0 2.8.2 4.1-.4-1.1-1-2.3-1.6-3.3l-2-3.6h-2.6v9.7h2V58c0-1.6 0-3-.1-4.2h.1c.5 1.1 1.1 2.4 1.7 3.4l2.1 3.7h2.3v-9.7h-2V54zM135.5 52.8c.8 0 1.4.2 1.8.4l.5-1.7c-.4-.2-1.3-.4-2.4-.4-2.9 0-5.3 1.8-5.3 5.1 0 2.8 1.7 4.9 5.1 4.9 1.2 0 2.1-.2 2.5-.4l-.3-1.7c-.4.2-1.2.3-1.8.3-1.9 0-3.1-1.2-3.1-3.2-.1-2.3 1.2-3.3 3-3.3zM141.3 56.8h3.6V55h-3.6v-2h3.8v-1.8h-6v9.7h6.2v-1.8h-4zM150.6 55.1c-1.3-.5-1.8-.8-1.8-1.4 0-.5.5-.9 1.4-.9.9 0 1.6.3 2 .5l.5-1.8c-.6-.3-1.4-.5-2.5-.5-2.3 0-3.7 1.3-3.7 2.9 0 1.4 1.1 2.3 2.7 2.9 1.2.4 1.6.8 1.6 1.4 0 .6-.5 1.1-1.5 1.1-.9 0-1.9-.3-2.4-.6l-.4 1.8c.5.3 1.6.6 2.7.6 2.7 0 3.9-1.4 3.9-3 0-1.5-.8-2.4-2.5-3zM153.6 62.6l1.5-.1c.7-1.1 1.3-2.6 1.8-4.1l-2.2.1c-.2 1.3-.6 2.8-1.1 4.1zM160.4 51.2h2.2v9.7h-2.2zM170.5 54c0 1.5 0 2.8.2 4.1-.4-1.1-1-2.3-1.6-3.3l-2-3.6h-2.6v9.7h2V58c0-1.6 0-3-.1-4.2h.1c.5 1.1 1.1 2.4 1.7 3.4l2.1 3.7h2.3v-9.7h-2V54zM179.3 52.8c.8 0 1.4.2 1.8.4l.5-1.7c-.4-.2-1.3-.4-2.4-.4-2.9 0-5.3 1.8-5.3 5.1 0 2.8 1.7 4.9 5.1 4.9 1.2 0 2.1-.2 2.5-.4l-.3-1.7c-.4.2-1.2.3-1.8.3-1.9 0-3.1-1.2-3.1-3.2 0-2.3 1.3-3.3 3-3.3zM184 58.4c-.8 0-1.3.5-1.3 1.3s.5 1.3 1.3 1.3 1.3-.6 1.3-1.3c0-.8-.5-1.3-1.3-1.3zM196.7 1c-1.5 0-2.8 1.2-2.8 2.8 0 1.6 1.2 2.8 2.8 2.8 1.5 0 2.8-1.2 2.8-2.8-.1-1.6-1.3-2.8-2.8-2.8zm0 5.2c-1.2 0-2.2-1-2.2-2.4 0-1.3 1-2.4 2.2-2.4 1.2 0 2.2 1.1 2.2 2.4 0 1.3-1 2.4-2.2 2.4z"/><path class="st3" d="M197.2 3.9c.3-.1.6-.4.6-.8 0-.3-.1-.5-.3-.6-.2-.1-.5-.2-1-.2-.4 0-.6 0-.9.1v3.1h.5V4.1h.3c.4 0 .6.1.7.5.1.4.1.7.2.8h.5c0-.1-.1-.3-.2-.8.1-.4-.1-.7-.4-.7zm-.7-.2h-.4V2.6h.4c.6 0 .8.3.8.5 0 .4-.4.6-.8.6z"/></svg>